# xmcd
#
# Track frame offsets:
#	150
#	15581
#	30845
#	46307
#	61403
#	79004
#	95365
#	111033
#	127216
#	143484
#	159970
#
# Disc length: 2335 seconds
#
# Revision: 6
# Processed by: cddbd v1.5.2PL0 Copyright (c) Steve Scherf et al.
# Submitted via: audiograbber 1.83.01
#
DISCID=7d091d0b
DTITLE=Trace Adkins - Cowboy's Back In Town
DYEAR=2010
DGENRE=Country
TTITLE0=Brown Chicken Brown Cow
TTITLE1=Hold My Beer
TTITLE2=Cowboy's Back In Town
TTITLE3=This Ain't No Love Song
TTITLE4=Hell, I Can Do That
TTITLE5=A Little Bit Of Missin' You
TTITLE6=Still Love You
TTITLE7=Don't Mind If I Don't
TTITLE8=Ala-Freakin-Bama
TTITLE9=Break Her Fall
TTITLE10=Whoop A Man's Ass
EXTD=YEAR: 2010
EXTT0=
EXTT1=
EXTT2=
EXTT3=
EXTT4=
EXTT5=
EXTT6=
EXTT7=
EXTT8=
EXTT9=
EXTT10=
PLAYORDER=
